<svg xmlns="http://www.w3.org/2000/svg" xml:space="preserve" style="enable-background:new 0 0 2000 2000" viewBox="0 0 2000 2000"><path d="m357.8 1056.1-14.6-21.5c-8.3 5.6-17.8 8.6-28.5 8.6h-12v13.1h-6.1V943.9h18.1c27.8 0 50.5 22.1 50.5 49.6 0 15-6.7 28.6-17.2 37.6l17.2 25.1h-7.4zm-11.7-31.5c4.1-4.1 7.4-8.8 9.6-14 2.4-5.4 3.5-11.2 3.5-17.2 0-5.8-1.1-11.6-3.5-17-2.2-5.2-5.4-9.9-9.6-14-3.9-3.9-8.7-7.1-13.9-9.2-5.7-2.4-11.3-3.4-17.4-3.4h-12v87.4h12c6.1 0 11.7-1.1 17.4-3.4 5.2-2.1 10-5.4 13.9-9.2zM528.2 999.9c0 31.1-25.5 56.5-57 56.5s-57-25.3-57-56.5c0-30.9 25.5-56.3 57-56.3s57 25.4 57 56.3zm-6.1 0c0-27.7-22.8-50.2-50.9-50.2-28.1 0-50.9 22.5-50.9 50.2 0 27.9 22.8 50.5 50.9 50.5 28-.1 50.9-22.6 50.9-50.5zM681.5 1028.4c-9.8 16.7-28.3 27.9-49.2 27.9-31.5 0-57-25.1-57-56.3 0-31.1 25.5-56.3 57-56.3 20.9 0 39.2 11.2 48.9 27.7l-5 3.4c-2.2-3.9-4.8-7.3-8-10.3-4.6-4.7-10-8.4-16.1-10.7-6.3-2.8-13.1-4.1-19.8-4.1-7 0-13.5 1.3-19.8 4.1-6.1 2.4-11.5 6-16.3 10.7-4.6 4.5-8.3 9.9-10.9 15.9-2.6 6.2-3.9 12.9-3.9 19.5 0 6.9 1.3 13.3 3.9 19.5 2.6 6 6.3 11.4 10.9 16.1 4.8 4.5 10.2 8.2 16.3 10.7 6.3 2.6 12.8 3.9 19.8 3.9 6.7 0 13.5-1.3 19.8-3.9 6.1-2.6 11.5-6.2 16.1-10.7 3.3-3.2 5.9-6.7 8-10.3l5.3 3.2zM796.2 1056.1l-42.9-35.6-15.2 23.4v12.5H732V943.9h6.1v88.9l58.5-88.9h7.2l-47 71.7 48.9 40.6h-9.5zM935.8 943.6v112.7h-6.1v-12.7h-66.1v12.7h-6.1V943.6h6.1v94h66.1v-94h6.1zM1099.4 999.9c0 31.1-25.5 56.5-57 56.5s-57-25.3-57-56.5c0-30.9 25.5-56.3 57-56.3 31.6 0 57 25.4 57 56.3zm-6.1 0c0-27.7-22.8-50.2-50.9-50.2-28.1 0-50.9 22.5-50.9 50.2 0 27.9 22.8 50.5 50.9 50.5 28.1-.1 50.9-22.6 50.9-50.5zM1208 1056.1l-14.6-21.5c-8.3 5.6-17.8 8.6-28.5 8.6h-12v13.1h-6.1V943.9h18.1c27.8 0 50.5 22.1 50.5 49.6 0 15-6.7 28.6-17.2 37.6l17.2 25.1h-7.4zm-11.8-31.5c4.1-4.1 7.4-8.8 9.6-14 2.4-5.4 3.5-11.2 3.5-17.2 0-5.8-1.1-11.6-3.5-17-2.2-5.2-5.4-9.9-9.6-14-3.9-3.9-8.7-7.1-13.9-9.2-5.7-2.4-11.3-3.4-17.4-3.4h-12v87.4h12c6.1 0 11.7-1.1 17.4-3.4 5.2-2.1 10-5.4 13.9-9.2zM1264.3 1056.4V943.6h6.1v112.7h-6.1zM1331.3 1050.1h73.1v6h-80.7v-6l73.1-100.3h-65.5v-6h73.1v6l-73.1 100.3zM1570.4 999.9c0 31.1-25.5 56.5-57 56.5s-57-25.3-57-56.5c0-30.9 25.5-56.3 57-56.3s57 25.4 57 56.3zm-6.1 0c0-27.7-22.8-50.2-50.9-50.2-28.1 0-50.9 22.5-50.9 50.2 0 27.9 22.8 50.5 50.9 50.5 28.1-.1 50.9-22.6 50.9-50.5zM1703.3 943.6v112.7h-6.1v-13.1l-73.3-90v103.1h-6.1V943.6h6.1l73.3 90.2v-90.2h6.1z" class="st0"/></svg>